<?xml version="1.0" encoding="utf-8"?>
<!-- Generator: Adobe Illustrator 22.1.0, SVG Export Plug-In . SVG Version: 6.00 Build 0)  -->
<svg version="1.1"
	 id="Layer_1" text-rendering="geometricPrecision" shape-rendering="geometricPrecision" image-rendering="optimizeQuality"
	 xmlns="http://www.w3.org/2000/svg" xmlns:xlink="http://www.w3.org/1999/xlink" x="0px" y="0px" viewBox="0 0 580 580"
	 style="enable-background:new 0 0 580 580;" xml:space="preserve">
<style type="text/css">
	.st0{fill:#FFFFFF;}
</style>
<title>filter_and_sort icon</title>
<desc>filter_and_sort icon from the IconExperience.com I-Collection. Copyright by INCORS GmbH (www.incors.com).</desc>
<path id="curve29" class="st0" d="M290,30c53.1,0,101.3,4.6,136.4,11.9c16.7,3.6,63.6,15,63.6,38.1v50c0,14.9-6.1,28.2-17.5,37.9
	L357,267c-4.8,4-7,9-7,15.2v66.2c0,20-31.2,45.3-60.6,57.3c-7.7,3.2-15.3,5.5-22.2,6.7c-18.1,3.1-37.2-1.8-37.2-24V282.2
	c0-6.2-2.3-11.2-7-15.2l-115.5-99.1C96.1,158.2,90,144.9,90,130V80c0.5-23.4,46.4-34.4,63.6-38.1C188.7,34.6,236.9,30,290,30z
	 M470,103.7c-10.8,5.7-25.6,10.6-43.6,14.3c-35.1,7.4-83.3,12-136.4,12s-101.3-4.6-136.4-12c-18-3.7-32.8-8.6-43.6-14.3V130
	c0,9.2,3.4,16.8,10.5,22.8l115.5,99c9.1,7.8,14,18.4,14,30.4v106.2c0,2.5,1,3.8,2.5,4.3c2.8,0.9,6.8,0.8,11.5,0
	c5.5-1,11.6-2.8,17.9-5.4c23.3-9.5,48.1-27.1,48.1-38.9v-66.2c0-11.9,4.9-22.6,14-30.4l115.5-99c7.1-6,10.5-13.6,10.5-22.8V103.7z
	 M422.3,61.5C388.6,54.4,341.9,50,290,50s-98.6,4.4-132.3,11.5C128.2,67.7,110,74.3,110,80c0,5.7,18.2,12.3,47.7,18.5
	c33.7,7.1,80.4,11.5,132.3,11.5s98.6-4.4,132.3-11.5C451.8,92.3,470,85.7,470,80C470,74.3,451.8,67.7,422.3,61.5z"/>
<path id="curve28" class="st0" d="M170,380v145.9l72.9-73l14.2,14.2l-90,90l-7.1,7l-7.1-7l-90-90l14.2-14.2l72.9,73V380H170z
	 M410,550V404.1l-72.9,73l-14.2-14.2l90-90l7.1-7l7.1,7l90,90l-14.2,14.2l-72.9-73V550H410z"/>
</svg>
