<?xml version="1.0" encoding="utf-8"?>
<!-- Generator: Adobe Illustrator 22.1.0, SVG Export Plug-In . SVG Version: 6.00 Build 0)  -->
<svg version="1.1" id="Layer_1" xmlns="http://www.w3.org/2000/svg" xmlns:xlink="http://www.w3.org/1999/xlink" x="0px" y="0px"
	 viewBox="0 0 801.7 192" style="enable-background:new 0 0 801.7 192;" xml:space="preserve">
<style type="text/css">
	.st0{fill:#D6162C;}
</style>
<path class="st0" d="M355,162.3c0-54.1,0-107.9,0-162.2c11.8,0,23.4-0.1,35,0.2c1.1,0,2.7,2.5,3.2,4.1c7.2,22.9,14.2,45.9,21.3,68.8
	c2,6.6,4.1,13.2,7,19.8c0-30.7,0-61.5,0-92.6c8.9,0,17.1,0,25.9,0c0,53.8,0,107.7,0,162.2c-9.3,0-18.7,0.1-28.2-0.2
	c-0.9,0-2.1-2.2-2.5-3.6c-9.4-30.9-18.6-61.8-28-92.7c-2-6.7-4.2-13.4-7.2-20c0,38.6,0,77.2,0,116.1
	C372.5,162.3,364,162.3,355,162.3z"/>
<path class="st0" d="M29.8,0.3c14.7,0,28.8,0,43.6,0c9.9,59.2,19.8,118.4,29.8,178.3c-10.3,1.2-19.9,2.3-29.9,3.5
	c-1.7-11.4-3.3-22.1-5-33.6c-3.7,0.3-7.2,0.6-10.8,0.9c-7,0.7-13.9,1.6-20.9,2.1c-3.1,0.2-4.3,1.4-4.7,4.4c-1,8.4-2.6,16.7-3.4,25.1
	c-0.5,4.8-1.3,7.9-7.4,8c-6.6,0.2-13.1,1.8-21.1,3C10,127.8,19.9,64.3,29.8,0.3z M50.8,34c-0.4-0.1-0.7-0.1-1.1-0.2
	c-4.5,30.2-8.9,60.4-13.5,91.5c9.6-0.9,18.6-1.7,28.1-2.5C59.7,92.8,55.2,63.4,50.8,34z"/>
<path class="st0" d="M747,109c-8.3,24.9-16.1,48.6-24,72.4c-9.2-1-18.1-2-27.5-3.1c4.3-12.3,8.4-24.1,12.6-36
	c6-16.9,12-33.8,18.2-50.5c1.4-3.8,1.6-7.2,0.2-11c-9.1-25.3-18-50.6-27-75.9c-0.5-1.4-1-2.8-1.7-4.8c9.8,0,19.2-0.1,28.5,0.2
	c1.1,0,2.6,2.1,3.1,3.5c6.4,19.1,12.7,38.3,19,57.5c0.4,1.2,0.9,2.5,1.7,4.8c2.1-5.9,3.9-10.9,5.6-15.9
	c5.1-15.2,10.3-30.4,15.2-45.7c1.1-3.5,2.8-4.5,6.4-4.4c7.3,0.3,14.6,0.1,22.6,0.1c-3.9,11.4-7.6,22.1-11.3,32.9
	c-5.9,17.1-11.9,34.1-17.5,51.3c-0.9,2.7-0.9,6.2-0.1,8.9c9.6,30.8,19.5,61.6,29.2,92.4c0.6,1.8,0.9,3.7,1.5,6.3
	c-10.1-1.4-19.6-2.7-29-4.3c-1.2-0.2-2.3-2.8-2.9-4.5c-7-22.9-14-45.9-21-68.9C748.4,112.9,748,111.7,747,109z"/>
<path class="st0" d="M326.1,91c-13.3,0-26.2,0-39.4,0c0,16.6,0,32.5,0,48.4c16.8,0,33.4,0,50.3,0c0,7.7,0,15.4,0,23.7
	c-26.5,1-53,1.9-79.8,2.9c0-55.5,0-110.4,0-165.6c26.5,0,52.9,0,79.8,0c0,7.1,0,14.3,0,22.2c-16.5,0-33.1,0-50.1,0
	c0,15.2,0,29.7,0,44.6c12.9,0,25.9,0,39.2,0C326.1,74.9,326.1,82.4,326.1,91z"/>
<path class="st0" d="M498.6,22.8c0,16.4,0,31.9,0,48.3c12.5,0,24.9,0,37.5,0c0,8.4,0,15.8,0,23.6c-12.4,0-24.6,0-37.5,0
	c0,23,0,45.8,0,68.9c-9.5,0-18.2,0.1-27-0.1c-0.9,0-1.9-1.6-2.7-2.7c-0.3-0.4-0.1-1.3-0.1-2c0-51.7,0-103.3,0-155c0-1,0.1-2,0.2-3.3
	c25.7,0,51.2,0,77.1,0c0,7.3,0,14.5,0,22.4C530.5,22.8,514.8,22.8,498.6,22.8z"/>
<path class="st0" d="M116.2,0.3c9.8,0,19.2,0,29.3,0c0,49.2,0,98.3,0,147.6c16.2-1.1,31.7-2.2,47.7-3.3c0,8.7,0,17,0,25.6
	c-25.5,2.3-51,4.6-76.9,6.9C116.2,117.9,116.2,59.4,116.2,0.3z"/>
<path class="st0" d="M590.3,143.4c16.3,1.1,31.9,2.1,47.8,3.2c0,8.8,0,17.2,0,26c-25.7-1.9-51.3-3.7-77-5.6c0-55.7,0-111,0-166.5
	c9.7,0,19.3,0,29.3,0C590.3,48,590.3,95.4,590.3,143.4z"/>
<path class="st0" d="M651.2,0.3c9.7,0,19.1,0,28.9,0c0,58.7,0,117.4,0,176.4c-9.8-1-19.3-2-28.9-3C651.2,115.7,651.2,58.1,651.2,0.3
	z"/>
<path class="st0" d="M206.2,0.3c9.7,0,19.1,0,28.9,0c0,55.7,0,111.2,0,167.1c-9.6,0.6-19.2,1.2-28.9,1.9
	C206.2,112.7,206.2,56.7,206.2,0.3z"/>
</svg>
