<?xml version="1.0" encoding="utf-8"?>
<!-- Generator: Adobe Illustrator 22.1.0, SVG Export Plug-In . SVG Version: 6.00 Build 0)  -->
<svg version="1.1"
	 id="Layer_1" text-rendering="geometricPrecision" shape-rendering="geometricPrecision" image-rendering="optimizeQuality"
	 xmlns="http://www.w3.org/2000/svg" xmlns:xlink="http://www.w3.org/1999/xlink" x="0px" y="0px" viewBox="0 0 580 580"
	 style="enable-background:new 0 0 580 580;" xml:space="preserve">
<style type="text/css">
	.st0{fill:#FFFFFF;}
</style>
<title>movie icon</title>
<desc>movie icon from the IconExperience.com I-Collection. Copyright by INCORS GmbH (www.incors.com).</desc>
<path id="curve29" class="st0" d="M410,460h20v20h-20V460z M468.1,330H550v180H333.9c12.6-5.6,24.5-12.3,35.7-20H530V350h-65.5
	C466,343.4,467.2,336.8,468.1,330z M490,360h20v20h-20V360z M462.1,360h7.9v20h-14.3C458.1,373.5,460.2,366.8,462.1,360z M490,460
	h20v20h-20V460z M450,460h20v20h-20V460z"/>
<path id="curve28" class="st0" d="M111.9,222c10.4-17.2,24.1-31.8,39.8-43.3c16.1-11.6,34.3-20,53.7-24.6
	c9.1-2.2,18.5,2.2,22.6,10.7c1.3,2.7,2,5.6,2,8.7v66.8c-9.6,2.9-16.9,5-25.3,11.2c-8.4,6.1-12.7,12.3-18.3,20.6l-63.6-20.7
	c-3-1-5.5-2.5-7.7-4.6C108.4,240.4,107,230,111.9,222z M163.5,194.9c-13.7,9.9-25.5,22.6-34.5,37.4l49.7,16.3
	c4.2-5.1,9-9.5,14.2-13.3c5.3-3.8,11.1-7,17.1-9.4v-52.4C193.2,177.5,177.4,184.8,163.5,194.9z M274.6,154
	c19.6,4.7,37.7,13.1,53.5,24.6c16,11.6,29.6,26.4,40,43.4c4.9,8,3.6,18.3-3.2,24.8c-2.2,2.1-4.7,3.6-7.7,4.6L293.6,272
	c-5.7-8.2-9.9-14.4-18.3-20.6c-8.5-6.1-15.7-8.2-25.3-11.1v-66.8c0-3.1,0.7-6,2-8.7C256,156.4,265.5,151.9,274.6,154z M316.3,194.8
	c-13.6-10-29.3-17.3-46.3-21.3v52.3c6.1,2.5,11.8,5.7,17,9.5c5.2,3.8,10,8.3,14.2,13.3l49.9-16.2
	C342.1,217.7,330.3,204.9,316.3,194.8z M389.5,287.8c1.7,20-0.8,39.9-6.8,58.4c-6.1,18.9-16,36.4-28.9,51.5
	c-6.1,7.1-16.3,9.1-24.6,4.7c-2.6-1.5-4.9-3.4-6.7-5.9l-39.3-54.1c6.1-8,10.7-14,13.9-23.9s3-17.4,2.7-27.4l63.6-20.7
	c2.9-0.9,5.9-1.2,8.9-0.8C381.5,270.9,388.7,278.5,389.5,287.8z M363.7,340.1c5.2-16.1,7.3-33.3,5.9-50.6l-49.8,16.1
	c-0.5,6.5-1.7,12.9-3.7,19.1c-2,6.2-4.8,12.1-8.3,17.7l30.8,42.3C349.9,371.6,358.4,356.4,363.7,340.1z M297.8,438.4
	c-18.5,7.8-38.2,11.6-57.7,11.6c-19.8,0-39.5-3.9-57.9-11.6c-8.6-3.6-13.6-12.7-12-21.9c0.5-3,1.7-5.8,3.5-8.3l39.3-54
	c9.5,3.3,16.6,5.8,27,5.8c10.4,0,17.5-2.5,27-5.9l39.3,54.1c1.8,2.5,3,5.3,3.5,8.2C311.4,425.6,306.4,434.8,297.8,438.4z M240.1,430
	c16.9,0,33.9-3.3,50-10l-30.8-42.4c-6.3,1.6-12.8,2.4-19.2,2.4c-6.6,0-13.1-0.8-19.4-2.4L189.9,420C205.8,426.6,222.9,430,240.1,430
	z M126.2,397.8c-13.1-15.3-22.8-32.8-28.8-51.3c-6.1-18.9-8.5-38.8-6.9-58.7c0.8-9.3,7.9-16.9,17.2-18.2c2.9-0.4,5.9-0.1,8.9,0.8
	l63.6,20.7c-0.3,10-0.5,17.5,2.7,27.5c3.2,9.9,7.9,15.8,13.9,23.8l-39.3,54.1c-1.8,2.5-4,4.4-6.7,5.9
	C142.6,406.7,132.3,404.8,126.2,397.8z M116.4,340.3c5.2,16.1,13.6,31.2,24.9,44.4l30.8-42.3c-3.4-5.6-6.2-11.5-8.2-17.6
	c-2-6.2-3.2-12.7-3.7-19.2l-49.8-16.2C109,306.6,111.1,323.9,116.4,340.3z M240,90c116,0,210,94,210,210s-94,210-210,210
	S30,416,30,300S124,90,240,90z M240,110c-104.9,0-190,85.1-190,190s85.1,190,190,190s190-85.1,190-190S344.9,110,240,110z"/>
</svg>
